# xmcd
#
# Track frame offsets:
#	150
#	18063
#	46490
#
# Disc length: 1073 seconds
#
# Revision: 1
# Processed by: cddbd v1.5.1PL2 Copyright (c) Steve Scherf et al.
# Submitted via: audiograbber 1.83.01
#
DISCID=18042f03
DTITLE=Madonna - 2006 - Get together
DYEAR=2006
DGENRE=Dance
TTITLE0=Get together (Radio Edit)
TTITLE1=Get together (Jacques Lu Cont Mix)
TTITLE2=Get together (Tiefschwarz Remix)
EXTD=
EXTT0=
EXTT1=
EXTT2=
PLAYORDER=
